# xmcd
#
# Track frame offsets:
#	150
#	12762
#	26206
#	38072
#	51113
#	62126
#	74771
#	88823
#	102109
#	115286
#	127815
#	140236
#	154023
#	162975
#	174461
#	185485
#	199673
#	211551
#	224604
#	237842
#	251125
#	263016
#	272196
#	285231
#	297549
#	309940
#
# Disc length: 4335 seconds
#
# Revision: 0
# Processed by: cddbd v1.5.2PL0 Copyright (c) Steve Scherf et al.
# Submitted via: EasyCDDAExtractor 10.0.3.1
#
DISCID=8610ed1a
DTITLE=Various Artist - Sunnyland Slim and His Pals, The Classic Sides 1947-53 
DTITLE=Disc D (1949-52)
DYEAR=2006
DGENRE=Blues
TTITLE0=J. B. Lenoir - I Wanna Play A Little While
TTITLE1=J. B. Lenoir - Louise
TTITLE2=J. B. Lenoir - Let's Roll
TTITLE3=J. B. Lenoir - People Are Meddlin' In Our Affairs
TTITLE4=J. B. Lenoir - I Have Married
TTITLE5=J. B. Lenoir - The Mountain
TTITLE6=J. B. Lenoir - I'll Die Tryin'
TTITLE7=J. B. Lenoir - How Much More
TTITLE8=J. B. Lenoir - The Mojo
TTITLE9=J. B. Lenoir - Slow Down Woman
TTITLE10=J. B. Lenoir - I Want My Baby
TTITLE11=J. B. Lenoir - How Can I Leave
TTITLE12=Jimmy Rogers - Ludella
TTITLE13=Jimmy Rogers - I'm In Love
TTITLE14=Jimmy Rogers - That's All Right
TTITLE15=St. Louis Jimmy - Shame On You Baby
TTITLE16=St. Louis Jimmy - I'm Not Satisfied
TTITLE17=St. Louis Jimmy - Trying To Change My Ways
TTITLE18=St. Louis Jimmy - Hard Work Boogie
TTITLE19=St. Louis Jimmy - Your Evil Ways
TTITLE20=St. Louis Jimmy - I Sit Up All Night
TTITLE21=St. Louis Jimmy - State Street Blues
TTITLE22=St. Louis Jimmy - Mother's Day
TTITLE23=St. Louis Jimmy - Chicago Woman Blues
TTITLE24=St. Louis Jimmy - Nervous Breakdown
TTITLE25=St. Louis Jimmy - Old Age Has Got Me
EXTD=
EXTT0=
EXTT1=
EXTT2=
EXTT3=
EXTT4=
EXTT5=
EXTT6=
EXTT7=
EXTT8=
EXTT9=
EXTT10=
EXTT11=
EXTT12=
EXTT13=
EXTT14=
EXTT15=
EXTT16=
EXTT17=
EXTT18=
EXTT19=
EXTT20=
EXTT21=
EXTT22=
EXTT23=
EXTT24=
EXTT25=
PLAYORDER=
